<svg width="26" height="25" viewBox="0 0 26 25" fill="none" xmlns="http://www.w3.org/2000/svg">
    <path d="M17.8 8.2C19.7096 8.2 21.5409 8.95857 22.8912 10.3088C24.2414 11.6591 25 13.4904 25 15.4V23.8H20.2V15.4C20.2 14.7635 19.9471 14.153 19.4971 13.7029C19.047 13.2529 18.4365 13 17.8 13C17.1635 13 16.553 13.2529 16.1029 13.7029C15.6529 14.153 15.4 14.7635 15.4 15.4V23.8H10.6V15.4C10.6 13.4904 11.3586 11.6591 12.7088 10.3088C14.0591 8.95857 15.8904 8.2 17.8 8.2Z" stroke="#D8198E" stroke-width="2" stroke-linecap="round" stroke-linejoin="round"/>
    <path d="M5.8 9.4H1V23.8H5.8V9.4Z" stroke="#D8198E" stroke-width="2" stroke-linecap="round" stroke-linejoin="round"/>
    <path d="M3.4 5.8C4.72548 5.8 5.8 4.72548 5.8 3.4C5.8 2.07452 4.72548 1 3.4 1C2.07452 1 1 2.07452 1 3.4C1 4.72548 2.07452 5.8 3.4 5.8Z" stroke="#D8198E" stroke-width="2" stroke-linecap="round" stroke-linejoin="round"/>
</svg>
