<svg width="26" height="22" viewBox="0 0 26 22" fill="none" xmlns="http://www.w3.org/2000/svg">
    <path d="M25 1.01097C23.9553 1.74785 22.7987 2.31145 21.5745 2.68006C20.9175 1.92462 20.0444 1.38918 19.0731 1.14616C18.1019 0.903145 17.0795 0.964274 16.1441 1.32128C15.2087 1.67829 14.4056 2.31395 13.8433 3.1423C13.2809 3.97064 12.9866 4.9517 13 5.95279V7.0437C11.0829 7.09341 9.18321 6.66822 7.47019 5.806C5.75717 4.94378 4.28398 3.6713 3.18182 2.10188C3.18182 2.10188 -1.18182 11.9201 8.63636 16.2837C6.38967 17.8088 3.71326 18.5734 1 18.4655C10.8182 23.9201 22.8182 18.4655 22.8182 5.92006C22.8172 5.61619 22.788 5.31307 22.7309 5.01461C23.8443 3.9166 24.63 2.53029 25 1.01097Z" stroke="#D8198E" stroke-width="2" stroke-linecap="round" stroke-linejoin="round"/>
</svg>
