<svg width="76" height="76" viewBox="0 0 76 76" fill="none" xmlns="http://www.w3.org/2000/svg">
    <path d="M2.00012 36.0001C1.98635 41.2795 3.21984 46.4876 5.60011 51.2C8.42237 56.847 12.7611 61.5967 18.1303 64.9171C23.4995 68.2376 29.6871 69.9976 36.0001 70C41.2795 70.0138 46.4876 68.7803 51.2 66.4L74 74L66.4 51.2C68.7803 46.4876 70.0138 41.2795 70 36.0001C69.9976 29.6871 68.2376 23.4995 64.9171 18.1303C61.5967 12.7611 56.847 8.42237 51.2 5.60011C46.4876 3.21984 41.2795 1.98635 36.0001 2.00011H34.0001C25.6627 2.46008 17.7879 5.97915 11.8835 11.8835C5.97916 17.7879 2.46008 25.6627 2.00012 34.0001V36.0001Z" stroke="#918F8F" stroke-width="4" stroke-linecap="round" stroke-linejoin="round"/>
</svg>
