<svg width="26" height="26" viewBox="0 0 24 24" fill="none" xmlns="http://www.w3.org/2000/svg">
    <path d="M7 2H17C20.31 2 23 4.69 23 8V16C23 19.31 20.31 22 17 22H7C3.69 22 1 19.31 1 16V8C1 4.69 3.69 2 7 2ZM7 0C3.14 0 0 3.14 0 7V17C0 20.86 3.14 24 7 24H17C20.86 24 24 20.86 24 17V7C24 3.14 20.86 0 17 0H7ZM12 7C9.24 7 7 9.24 7 12C7 14.76 9.24 17 12 17C14.76 17 17 14.76 17 12C17 9.24 14.76 7 12 7ZM12 5C15.87 5 19 8.13 19 12C19 15.87 15.87 19 12 19C8.13 19 5 15.87 5 12C5 8.13 8.13 5 12 5ZM18.5 4C17.67 4 17 4.67 17 5.5C17 6.33 17.67 7 18.5 7C19.33 7 20 6.33 20 5.5C20 4.67 19.33 4 18.5 4Z" fill="white"/>
</svg>