<svg width="83" height="73" viewBox="0 0 83 73" fill="none" xmlns="http://www.w3.org/2000/svg">
    <path d="M74.9084 8.1001C72.978 6.16619 70.6861 4.63208 68.1636 3.5854C65.641 2.53873 62.9373 2 60.2067 2C57.4762 2 54.7724 2.53873 52.2499 3.5854C49.7273 4.63208 47.4354 6.16619 45.5051 8.1001L41.499 12.1118L37.4929 8.1001C33.5938 4.19557 28.3054 2.00202 22.7913 2.00202C17.2771 2.00202 11.9887 4.19557 8.08962 8.1001C4.1905 12.0046 2 17.3003 2 22.8222C2 28.344 4.1905 33.6397 8.08962 37.5442L12.0957 41.5559L41.499 71L70.9023 41.5559L74.9084 37.5442C76.8396 35.6112 78.3716 33.3161 79.4168 30.7901C80.462 28.264 81 25.5565 81 22.8222C81 20.0878 80.462 17.3803 79.4168 14.8543C78.3716 12.3282 76.8396 10.0331 74.9084 8.1001V8.1001Z" stroke="#918F8F" stroke-width="4" stroke-linecap="round" stroke-linejoin="round"/>
</svg>
