<svg width="110" height="127" viewBox="0 0 110 127" fill="none" xmlns="http://www.w3.org/2000/svg">
    <path d="M30 55V30C30 23.3696 32.6339 17.0107 37.3223 12.3223C42.0107 7.63392 48.3696 5 55 5C61.6304 5 67.9893 7.63392 72.6777 12.3223C77.3661 17.0107 80 23.3696 80 30V34.1667M13.3333 55H96.6667C98.8768 55 100.996 55.878 102.559 57.4408C104.122 59.0036 105 61.1232 105 63.3333V113.333C105 115.543 104.122 117.663 102.559 119.226C100.996 120.789 98.8768 121.667 96.6667 121.667H13.3333C11.1232 121.667 9.00358 120.789 7.44078 119.226C5.87797 117.663 5 115.543 5 113.333V63.3333C5 61.1232 5.87797 59.0036 7.44078 57.4408C9.00358 55.878 11.1232 55 13.3333 55Z" stroke="#CCCCCC" stroke-width="10"/>
</svg>
