<svg width="76" height="76" viewBox="0 0 76 76" fill="none" xmlns="http://www.w3.org/2000/svg">
    <path d="M57.8 18.2H57.836M20 2H56C65.9411 2 74 10.0589 74 20V56C74 65.9411 65.9411 74 56 74H20C10.0589 74 2 65.9411 2 56V20C2 10.0589 10.0589 2 20 2ZM52.4 35.732C52.8443 38.7281 52.3325 41.788 50.9375 44.4765C49.5425 47.1649 47.3353 49.3451 44.6299 50.7068C41.9244 52.0686 38.8584 52.5425 35.868 52.0614C32.8777 51.5802 30.1151 50.1683 27.9734 48.0266C25.8317 45.8849 24.4198 43.1223 23.9386 40.132C23.4575 37.1416 23.9314 34.0756 25.2932 31.3701C26.6549 28.6647 28.8351 26.4575 31.5235 25.0625C34.212 23.6675 37.2719 23.1557 40.268 23.6C43.3241 24.0532 46.1535 25.4773 48.3381 27.6619C50.5227 29.8465 51.9468 32.6759 52.4 35.732Z" stroke="#918F8F" stroke-width="4" stroke-linecap="round" stroke-linejoin="round"/>
</svg>
