<svg width="76" height="73" viewBox="0 0 76 73" fill="none" xmlns="http://www.w3.org/2000/svg">
    <path d="M52.4 23.5242C58.1287 23.5242 63.6227 25.7919 67.6735 29.8285C71.7243 33.8651 74 39.3398 74 45.0484V70.16H59.6V45.0484C59.6 43.1456 58.8414 41.3206 57.4912 39.9751C56.1409 38.6296 54.3096 37.8737 52.4 37.8737C50.4904 37.8737 48.6591 38.6296 47.3088 39.9751C45.9586 41.3206 45.2 43.1456 45.2 45.0484V70.16H30.8V45.0484C30.8 39.3398 33.0757 33.8651 37.1265 29.8285C41.1773 25.7919 46.6713 23.5242 52.4 23.5242Z" stroke="#918F8F" stroke-width="4" stroke-linecap="round" stroke-linejoin="round"/>
    <path d="M16.4 27.1116H2V70.16H16.4V27.1116Z" stroke="#918F8F" stroke-width="4" stroke-linecap="round" stroke-linejoin="round"/>
    <path d="M9.2 16.3495C13.1764 16.3495 16.4 13.1372 16.4 9.17474C16.4 5.21224 13.1764 2 9.2 2C5.22355 2 2 5.21224 2 9.17474C2 13.1372 5.22355 16.3495 9.2 16.3495Z" stroke="#918F8F" stroke-width="4" stroke-linecap="round" stroke-linejoin="round"/>
</svg>
