<svg width="76" height="76" viewBox="0 0 76 76" fill="none" xmlns="http://www.w3.org/2000/svg">
    <path d="M34.2046 9.59071H9.15659C7.25854 9.59071 5.43824 10.3447 4.09612 11.6868C2.754 13.0289 2 14.8493 2 16.7473V66.8434C2 68.7415 2.754 70.5618 4.09612 71.9039C5.43824 73.246 7.25854 74 9.15659 74H59.2527C61.1507 74 62.9711 73.246 64.3132 71.9039C65.6553 70.5618 66.4093 68.7415 66.4093 66.8434V41.7954M61.0419 4.22327C62.4654 2.79973 64.3961 2 66.4093 2C68.4225 2 70.3532 2.79973 71.7767 4.22327C73.2003 5.6468 74 7.57753 74 9.59071C74 11.6039 73.2003 13.5346 71.7767 14.9581L37.7829 48.9519L23.4698 52.5302L27.0481 38.2171L61.0419 4.22327Z" stroke="#918F8F" stroke-width="4" stroke-linecap="round" stroke-linejoin="round"/>
</svg>
