<svg width="101" height="118" viewBox="0 0 101 118" fill="none" xmlns="http://www.w3.org/2000/svg">
    <path d="M17.1667 44.9444V35.2222C17.1667 16.3056 31.0722 0.5 50.5 0.5C69.9278 0.5 83.8333 16.3056 83.8333 35.2222V44.9444H86.6111C90.2947 44.9444 93.8274 46.4077 96.432 49.0124C99.0367 51.6171 100.5 55.1498 100.5 58.8333V103.278C100.5 106.961 99.0367 110.494 96.432 113.099C93.8274 115.703 90.2947 117.167 86.6111 117.167H14.3889C10.7053 117.167 7.17263 115.703 4.56796 113.099C1.96329 110.494 0.5 106.961 0.5 103.278V58.8333C0.5 55.1498 1.96329 51.6171 4.56796 49.0124C7.17263 46.4077 10.7053 44.9444 14.3889 44.9444H17.1667ZM8.83333 58.8333V103.278C8.83333 104.751 9.41865 106.164 10.4605 107.206C11.5024 108.248 12.9155 108.833 14.3889 108.833H86.6111C88.0845 108.833 89.4976 108.248 90.5395 107.206C91.5814 106.164 92.1667 104.751 92.1667 103.278V58.8333C92.1667 57.3599 91.5814 55.9468 90.5395 54.905C89.4976 53.8631 88.0845 53.2778 86.6111 53.2778H14.3889C12.9155 53.2778 11.5024 53.8631 10.4605 54.905C9.41865 55.9468 8.83333 57.3599 8.83333 58.8333ZM25.5 35.2222V44.9444H75.5V35.2222C75.5 20.3889 64.8222 8.83333 50.5 8.83333C36.1778 8.83333 25.5 20.3889 25.5 35.2222Z" fill="#CCCCCC"/>
</svg>
