<svg width="76" height="63" viewBox="0 0 76 63" fill="none" xmlns="http://www.w3.org/2000/svg">
    <path d="M74 2.03284C70.866 4.23897 67.396 5.92631 63.7236 7.02987C61.7526 4.76818 59.1331 3.16515 56.2194 2.43759C53.3057 1.71003 50.2384 1.89304 47.4323 2.96188C44.6262 4.03071 42.2167 5.9338 40.5298 8.41375C38.8428 10.8937 37.9597 13.8309 38 16.828V20.094C32.2486 20.2428 26.5496 18.9699 21.4106 16.3885C16.2715 13.8071 11.8519 9.99751 8.54545 5.29887C8.54545 5.29887 -4.54545 34.6932 24.9091 47.7573C18.169 52.3231 10.1398 54.6125 2 54.2894C31.4545 70.6195 67.4545 54.2894 67.4545 16.73C67.4515 15.8202 67.3639 14.9128 67.1927 14.0192C70.5329 10.7319 72.89 6.58149 74 2.03284Z" stroke="#918F8F" stroke-width="4" stroke-linecap="round" stroke-linejoin="round"/>
</svg>
