<svg width="84" height="76" viewBox="0 0 84 76" fill="none" xmlns="http://www.w3.org/2000/svg">
    <path d="M14 58H10C7.87827 58 5.84344 57.1571 4.34315 55.6569C2.84285 54.1566 2 52.1217 2 50V10C2 7.87827 2.84285 5.84344 4.34315 4.34315C5.84344 2.84285 7.87827 2 10 2H74C76.1217 2 78.1566 2.84285 79.6569 4.34315C81.1571 5.84344 82 7.87827 82 10V50C82 52.1217 81.1571 54.1566 79.6569 55.6569C78.1566 57.1571 76.1217 58 74 58H70M42 50L62 74H22L42 50Z" stroke="#918F8F" stroke-width="4" stroke-linecap="round" stroke-linejoin="round"/>
</svg>
